<svg id="Layer_1" data-name="Layer 1" xmlns="http://www.w3.org/2000/svg" viewBox="0 0 205.805 186.996">
  <defs>
    <style>
      .cls-1 {
        fill: #de002b;
      }

      .cls-2 {
        fill: #a30c1d;
        opacity: 0.5;
      }
    </style>
  </defs>
  <title>3407dd3f-b632-49da-beaf-b8ff7fadbc06</title>
  <g>
    <path class="cls-1" d="M199.509,79.795c14.089-32.74,1.99-62.375-21.089-74.9-23.272-12.638-55.371.189-75.8,27.255C81.81,5.372,49.533-6.994,26.443,5.973,3.869,18.647-7.8,47.8,5.822,79.795Z" transform="translate(0 0)"/>
    <path class="cls-1" d="M22.928,117.524c26.4,31.445,71.224,62.5,80.717,68.92,9.287-6.474,52.72-37.489,78.786-68.92Z" transform="translate(0 0)"/>
    <path class="cls-2" d="M200.018,79.795c13.717-32.52,1.628-61.894-21.32-74.352-23.273-12.638-55.371.189-75.8,27.255l.335,47.1Z" transform="translate(0 0)"/>
    <path class="cls-2" d="M103.473,117.524l-.061-2.059.509,71.53c9.342-6.512,53.227-37.853,79.24-69.471Z" transform="translate(0 0)"/>
  </g>
</svg>
